<?xml version="1.0" encoding="utf-8"?>
<!-- Generator: Adobe Illustrator 26.5.0, SVG Export Plug-In . SVG Version: 6.00 Build 0)  -->
<svg xmlns:xlink="http://www.w3.org/1999/xlink" version="1.1" id="Capa_1" xmlns="http://www.w3.org/2000/svg" x="0px"
     y="0px"
     viewBox="0 0 500 100" style="enable-background:new 0 0 500 100;" xml:space="preserve">
<style type="text/css">
	.st0{fill:#12100B;}
	.st1{clip-path:url(#SVGID_00000016060512081561025690000010784618451207375750_);fill:#12100B;}
	.st2{clip-path:url(#SVGID_00000128487332302904447260000010970127188338057350_);fill:#12100B;}
</style>
    <g>
	<g>
		<path class="st0" d="M167.9,56.4c0-1.8-1.1-3.8-4.2-3.8h-4v9.9h1.7v-2.3h3l2.1,2.3h2.3l-2.6-2.9C167.2,59,167.9,57.8,167.9,56.4z
			 M166.1,56.4c0,1.3-0.9,2.1-2.3,2.1h-2.5v-4.2h2.5C165.2,54.3,166.1,55.1,166.1,56.4z"/>
        <polygon class="st0" points="175.6,58.2 181,58.2 181,56.3 175.6,56.3 175.6,54.3 181.3,54.3 181.3,52.6 173.7,52.6 173.7,62.5
			181.5,62.5 181.5,60.8 175.6,60.8 		"/>
        <path class="st0" d="M191.3,56.6l-0.2,0.5l0,0l0,0l0,0L191.3,56.6L191.3,56.6c-1.5-0.4-2.1-0.7-2.1-1.2c0-1,1.1-1.1,1.8-1.1
			c0.8,0,1.4,0.2,2,0.8l0.7,0.7l0.8-1.4l-0.3-0.3c-0.7-0.8-1.8-1.1-3.2-1.1c-1.7,0-3.5,1-3.5,2.8c0,2.2,2.4,2.7,3.4,2.9
			c0.8,0.2,2.2,0.6,2.2,1.2c0,0.3,0,1.2-2.1,1.2c-1,0-2-0.4-2.7-1.1l-0.6-0.4l-1.1,1.1l0.3,0.4c1,1.1,2.3,1.8,3.7,1.8
			c1.9,0,4-1.1,4-3C194.8,57.7,192.7,57,191.3,56.6z"/>
        <rect x="200.7" y="52.6" class="st0" width="1.7" height="9.9"/>
        <path class="st0" d="M217.5,57.5c0.1-1.3-0.3-2.4-1.1-3.4c-0.9-1-2.3-1.6-3.9-1.6h-3.8v9.9h3.8C215.4,62.5,217.5,60.4,217.5,57.5z
			 M212.6,60.9h-1.9v-6.5l1.9,0c0.9,0,1.7,0.2,2.3,0.8c0.6,0.6,1,1.5,1,2.5C215.9,59.6,214.6,60.9,212.6,60.9z"/>
        <polygon class="st0" points="231.5,60.8 225.4,60.8 225.4,58.2 230.8,58.2 230.8,56.3 225.4,56.3 225.4,54.3 231.2,54.3
			231.2,52.6 223.5,52.6 223.5,62.5 231.5,62.5 		"/>
        <path class="st0" d="M245.6,62.5v-9.9h-1.7v6.6l-5.4-6.5h-1.4v9.8h1.7V56l5.4,6.5H245.6z M244.4,60.6
			C244.4,60.6,244.4,60.6,244.4,60.6L244.4,60.6L244.4,60.6z"/>
        <path class="st0" d="M260.5,60.9l0.3-0.4l-1.7-1.7v1.2c-0.5,0.6-1.3,0.9-2.3,0.9c-1.8,0-3.3-1.5-3.3-3.3s1.5-3.3,3.3-3.3
			c0.9,0,1.7,0.3,2.2,0.9l0.1,0.1h0.6l1-1l-0.4-0.4c-0.9-0.9-2-1.3-3.5-1.3c-2.8,0-5,2.2-5,5s2.2,5,5,5
			C258.3,62.7,259.6,62,260.5,60.9z"/>
        <polygon class="st0" points="267.9,58.2 273.3,58.2 273.3,56.3 267.9,56.3 267.9,54.3 273.7,54.3 273.7,52.6 266.1,52.6
			266.1,62.5 274,62.5 274,60.8 267.9,60.8 		"/>
        <path class="st0" d="M283.7,56.7l-0.2-0.1c-1.4-0.4-2-0.7-2-1.2c0-1,1.1-1.1,1.8-1.1c0.8,0,1.4,0.2,2,0.8l0.7,0.7l0.8-1.4
			l-0.3-0.3c-0.8-0.8-1.8-1.1-3.2-1.1c-1.7,0-3.5,1-3.5,2.8c0,2.2,2.4,2.7,3.4,2.9c0.8,0.2,2.2,0.6,2.2,1.2c0,0.3,0,1.2-2.1,1.2
			c-1,0-2-0.4-2.7-1.1l-0.6-0.4l-1.1,1.1l0.3,0.4c1,1.1,2.3,1.8,3.7,1.8c1.9,0,4-1.1,4-3C287.3,57.7,285.1,57.1,283.7,56.7z"/>
        <path class="st0" d="M191.4,74.3c0.3-0.4,0.4-0.9,0.4-1.3c0-1.4-1.1-2.4-2.6-2.4H185v9h4.2c2.2,0,3.5-1.1,3.5-2.9
			C192.7,75.7,192.2,74.9,191.4,74.3z M189.2,77.9h-2.3v-2.5h2.6c0.7,0,1.5,0.4,1.5,1.3C191,77.4,190.3,77.9,189.2,77.9z
			 M189.4,73.7h-2.7v-1.4h2.5c0.8,0,0.9,0.3,0.9,0.7C190.1,73.4,189.8,73.7,189.4,73.7z"/>
        <path class="st0" d="M199.5,73.1c-0.5-0.3-1.1-0.4-1.8-0.4c-2.1,0-3.5,1.5-3.5,3.6c0,2.1,1.5,3.6,3.5,3.6c0.6,0,1.2-0.2,1.8-0.6
			v0.3h1.7v-6.9h-1.7V73.1z M197.7,78c-1,0-1.8-0.8-1.8-1.9c0-1.1,0.8-1.9,1.8-1.9s1.8,0.8,1.8,1.9C199.5,77.2,198.7,78,197.7,78z"
        />
        <path class="st0" d="M206.3,76.8l-2-4.1h-1.8l3,6l-0.1,0.2c-0.4,0.7-0.5,0.7-1,0.7h-0.7v1.7h0.7c0.8,0,1.7-0.2,2.6-1.9l2.8-5.9
			l0-0.9h-1.5L206.3,76.8z"/>
        <polygon class="st0" points="221.5,73.9 217.4,73.9 217.4,70.6 215.7,70.6 215.7,79.6 217.4,79.6 217.4,75.6 221.5,75.6
			221.5,79.6 223.1,79.6 223.1,70.6 221.5,70.6 		"/>
        <path class="st0" d="M230.3,73.1c-0.5-0.3-1.1-0.4-1.8-0.4c-2.1,0-3.5,1.5-3.5,3.6c0,2.1,1.5,3.6,3.5,3.6c0.6,0,1.2-0.2,1.8-0.6
			v0.3h1.7v-6.9h-1.7V73.1z M228.5,78c-1,0-1.8-0.8-1.8-1.9c0-1.1,0.8-1.9,1.8-1.9c1.1,0,1.8,0.7,1.8,1.9
			C230.3,77.2,229.5,78,228.5,78z"/>
        <path class="st0"
              d="M236,73.1v-0.4h-1.7v6.9h1.7V76c0-0.9,0.6-1.8,1.8-1.8h0.7v-1.7h-0.7C237.1,72.5,236.5,72.7,236,73.1z"/>
        <path class="st0" d="M243.6,72.5c-0.7,0-1.3,0.2-1.8,0.4v-2.5h-1.7v9.2h1.7v-0.4c0.5,0.3,1.2,0.6,1.8,0.6c2,0,3.5-1.6,3.5-3.7
			C246.7,74,245.3,72.5,243.6,72.5z M243.3,74.2c1.1,0,1.8,0.7,1.8,1.9c0,1.2-0.7,1.9-1.8,1.9c-0.9,0-1.8-0.7-1.8-1.9
			C241.5,75,242.3,74.2,243.3,74.2z"/>
        <path class="st0" d="M252.3,72.5c-2,0-3.6,1.6-3.6,3.6c0,2,1.6,3.6,3.6,3.6c2,0,3.6-1.6,3.6-3.7C255.7,74.1,254.1,72.5,252.3,72.5
			z M250.2,76.1c0-1.1,0.8-1.9,1.9-1.9c1.1,0,1.9,0.8,1.9,1.9c0,1.1-0.8,1.9-1.9,1.9C251,78,250.2,77.2,250.2,76.1z"/>
        <path class="st0"
              d="M259.4,73.1v-0.4h-1.7v6.9h1.7V76c0-0.9,0.6-1.8,1.8-1.8h0.7v-1.7h-0.7C260.6,72.5,259.9,72.7,259.4,73.1z"/>
        <path class="st0" d="M123.9,18.8c-6.3,0-11.5,5.2-11.5,11.5c0,6.2,5.3,11.5,11.5,11.5c6.3,0,11.5-5.2,11.5-11.5
			C135.2,24,130,18.8,123.9,18.8z M123.7,20.9c5.2,0,9.4,4.2,9.4,9.4c0,5.2-4.2,9.4-9.4,9.4c-5.3,0-9.4-4.1-9.4-9.4
			C114.3,25.1,118.5,20.9,123.7,20.9z"/>
        <rect x="204.7" y="18.8" class="st0" width="2" height="22.8"/>
        <path class="st0" d="M246,41.8c6.3,0,11.5-5.2,11.5-11.5v-1.5h-12.1v2h9.9c-0.3,4.9-4.4,8.8-9.4,8.8c-5.2,0-9.4-4.2-9.4-9.4
			c0-5.2,4.2-9.4,9.4-9.4c2.5,0,4.8,0.9,6.6,2.7l0.6,0.6l1.4-1.4L254,22c-2.2-2.2-4.9-3.2-8.1-3.2c-6.2,0-11.5,5.3-11.5,11.5
			C234.5,36.6,239.7,41.8,246,41.8z"/>
        <rect x="285.2" y="18.8" class="st0" width="2" height="22.8"/>
        <polygon class="st0" points="332.4,18.8 332.4,38.3 317.4,19.3 317.4,18.8 315,18.8 315,41.8 317.1,41.8 317.1,22.3 332.2,41.5
			332.6,41.8 334.5,41.8 334.5,18.8 		"/>
        <path class="st0" d="M176.4,41.6l-5.2-8.8c3.4-0.6,5.8-3.4,5.8-6.8c0-3.9-3.2-7.1-7.1-7.1h-10.1v2h10.1c2.7,0,4.9,2.2,4.9,5.1
			c0,2.7-2.2,4.9-4.9,4.9h-10.1v2h9.1l5.1,8.7H176.4z"/>
	</g>
        <g>
		<g>
			<g>
				<path id="SVGID_1_" class="st0" d="M48.4,99.5c-17.1-0.9-30.5-15-30.5-32.2C17.9,49.5,32.4,35,50.2,35s32.2,14.5,32.2,32.2
					c0,17.2-13.6,31.4-30.5,32.1c-0.5,0-1,0-1.6,0C49.5,99.5,49,99.5,48.4,99.5 M16.4,65.9c0-18.5,15.2-33.6,33.6-33.6
					s33.6,15.2,33.6,33.6c0,6.6-1.9,12.9-5.4,18.1c3-4.9,4.5-10.6,4.5-16.7c0-18.1-14.8-32.9-32.9-32.9S16.9,49.1,16.9,67.2
					c0,6.1,1.7,11.8,4.5,16.7C18.5,78.7,16.4,72.5,16.4,65.9 M15,64.5c0-19.3,15.7-35,35-35s35,15.7,35,35c0,7-2.1,13.4-5.6,19
					c3.1-5.1,4.9-11.1,4.9-17.4C84.3,47,69,31.7,50,31.7S15.7,47,15.7,66c0,6.4,1.7,12.4,4.9,17.4C17.1,77.9,15,71.4,15,64.5
					 M13.6,63.1C13.6,43,30,26.7,50,26.7S86.4,43,86.4,63.1c0,7.3-2.1,13.9-5.7,19.7c3.1-5.4,5.1-11.5,5.1-18.3
					c0-19.7-16-35.7-35.7-35.7s-35.7,16-35.7,35.7c0,6.6,1.9,12.9,5.1,18.3C15.7,77,13.6,70.2,13.6,63.1 M12.2,61.5
					c0-20.9,17.1-38,38-38s38,17.1,38,38c0,7.5-2.3,14.5-5.9,20.4c3.3-5.6,5.2-12,5.2-19c0-20.6-16.7-37.1-37.1-37.1
					c-20.6,0-37.1,16.7-37.1,37.1c0,7,1.9,13.4,5.2,19C14.3,76.1,12.2,69,12.2,61.5 M10.6,60.1c0-21.8,17.6-39.4,39.4-39.4
					s39.4,17.8,39.4,39.4c0,7.8-2.3,15-6.3,21.1c3.5-5.7,5.4-12.5,5.4-19.7c0-21.3-17.2-38.7-38.7-38.7c-21.3,0-38.7,17.2-38.7,38.7
					c0,7.1,1.9,13.9,5.4,19.7C13.1,75.1,10.6,67.9,10.6,60.1 M9.2,58.7c0-22.5,18.3-40.8,40.8-40.8s40.8,18.3,40.8,40.8
					c0,8-2.4,15.5-6.4,22c3.7-5.9,5.6-13.1,5.6-20.4c0-22.1-17.9-40.1-40.1-40.1S9.8,38.2,9.8,60.3c0,7.5,2.1,14.5,5.6,20.4
					C11.7,74.2,9.2,66.7,9.2,58.7 M7.8,57.3c0-23.3,19-42.2,42.2-42.2c23.3,0,42.2,19,42.2,42.2c0,8.4-2.4,16.2-6.6,22.8
					c3.8-6.3,5.9-13.6,5.9-21.4c0-22.8-18.6-41.5-41.5-41.5S8.5,35.9,8.5,58.7c0,7.8,2.1,15.2,5.9,21.4C10.3,73.5,7.8,65.7,7.8,57.3
					 M6.4,55.7c0-24,19.5-43.6,43.6-43.6s43.7,19.5,43.7,43.6c0,8.7-2.6,16.7-7,23.5c3.8-6.4,6.1-14.1,6.1-22.1
					c0-23.7-19.2-42.9-42.9-42.9S7.1,33.4,7.1,57.1c0,8,2.3,15.7,6.1,22.1C8.9,72.6,6.4,64.5,6.4,55.7 M5.1,54.4
					c0-24.9,20.2-45.1,45.1-45.1s45.1,20.2,45.1,45.1c0,8.9-2.6,17.2-7.1,24.4c4-6.6,6.4-14.5,6.4-22.8c0-24.4-19.9-44.3-44.3-44.3
					c-24.7-0.2-44.6,19.7-44.6,44c0,8.4,2.3,16.2,6.4,22.8C7.7,71.8,5.1,63.4,5.1,54.4 M3.5,53C3.5,27.4,24.4,6.4,50,6.4
					s46.5,21,46.5,46.6c0,9.2-2.8,17.8-7.3,25.1c4.2-7,6.6-15,6.6-23.7C95.8,29.1,75.3,8.7,50,8.7S4.4,29.1,4.4,54.4
					c0,8.7,2.4,16.7,6.6,23.7C6.3,70.7,3.5,62.2,3.5,53 M2.1,51.6C2.1,25.1,23.7,3.5,50,3.5c26.5,0,48.1,21.6,48.1,48.1
					c0,9.6-2.8,18.5-7.5,25.8c4.4-7.1,6.8-15.5,6.8-24.4c0-26-21.3-47.2-47.2-47.2S3,27,3,53c0,8.9,2.4,17.2,6.8,24.4
					C4.9,69.9,2.1,61,2.1,51.6 M0.7,50c0-27.2,22.1-49.5,49.5-49.5c27.2,0,49.5,22.1,49.5,49.5c0,9.8-2.8,19-7.8,26.7
					c4.5-7.3,7-16,7-25.1C98.8,24.7,77,3,50.2,3C23.2,3,1.4,24.7,1.4,51.6c0,9.2,2.6,17.8,7,25.1C3.5,69,0.7,59.9,0.7,50 M0,50
					c0,27.2,21.8,49.5,49,50c0.2,0,0.5,0,0.7,0s0.3,0,0.5,0l0,0c0.3,0,0.7,0,1.2,0c27-0.5,49-22.8,49-50C100.2,22.5,77.7,0,50,0
					C22.5,0,0,22.5,0,50"/>
			</g>
            <g>
				<g>
					<defs>
						<path id="SVGID_00000022536776315271906940000011675065952877792933_" d="M48.4,99.5c-17.1-0.9-30.5-15-30.5-32.2
							C17.9,49.5,32.4,35,50.2,35s32.2,14.5,32.2,32.2c0,17.2-13.6,31.4-30.5,32.1c-0.5,0-1,0-1.6,0C49.5,99.5,49,99.5,48.4,99.5
							 M16.4,65.9c0-18.5,15.2-33.6,33.6-33.6s33.6,15.2,33.6,33.6c0,6.6-1.9,12.9-5.4,18.1c3-4.9,4.5-10.6,4.5-16.7
							c0-18.1-14.8-32.9-32.9-32.9S16.9,49.1,16.9,67.2c0,6.1,1.7,11.8,4.5,16.7C18.5,78.7,16.4,72.5,16.4,65.9 M15,64.5
							c0-19.3,15.7-35,35-35s35,15.7,35,35c0,7-2.1,13.4-5.6,19c3.1-5.1,4.9-11.1,4.9-17.4C84.3,47,69,31.7,50,31.7S15.7,47,15.7,66
							c0,6.4,1.7,12.4,4.9,17.4C17.1,77.9,15,71.4,15,64.5 M13.6,63.1C13.6,43,30,26.7,50,26.7S86.4,43,86.4,63.1
							c0,7.3-2.1,13.9-5.7,19.7c3.1-5.4,5.1-11.5,5.1-18.3c0-19.7-16-35.7-35.7-35.7s-35.7,16-35.7,35.7c0,6.6,1.9,12.9,5.1,18.3
							C15.7,77,13.6,70.2,13.6,63.1 M12.2,61.5c0-20.9,17.1-38,38-38s38,17.1,38,38c0,7.5-2.3,14.5-5.9,20.4c3.3-5.6,5.2-12,5.2-19
							c0-20.6-16.7-37.1-37.1-37.1c-20.6,0-37.1,16.7-37.1,37.1c0,7,1.9,13.4,5.2,19C14.3,76.1,12.2,69,12.2,61.5 M10.6,60.1
							c0-21.8,17.6-39.4,39.4-39.4s39.4,17.8,39.4,39.4c0,7.8-2.3,15-6.3,21.1c3.5-5.7,5.4-12.5,5.4-19.7
							c0-21.3-17.2-38.7-38.7-38.7c-21.3,0-38.7,17.2-38.7,38.7c0,7.1,1.9,13.9,5.4,19.7C13.1,75.1,10.6,67.9,10.6,60.1 M9.2,58.7
							c0-22.5,18.3-40.8,40.8-40.8s40.8,18.3,40.8,40.8c0,8-2.4,15.5-6.4,22c3.7-5.9,5.6-13.1,5.6-20.4c0-22.1-17.9-40.1-40.1-40.1
							S9.8,38.2,9.8,60.3c0,7.5,2.1,14.5,5.6,20.4C11.7,74.2,9.2,66.7,9.2,58.7 M7.8,57.3c0-23.3,19-42.2,42.2-42.2
							c23.3,0,42.2,19,42.2,42.2c0,8.4-2.4,16.2-6.6,22.8c3.8-6.3,5.9-13.6,5.9-21.4c0-22.8-18.6-41.5-41.5-41.5S8.5,35.9,8.5,58.7
							c0,7.8,2.1,15.2,5.9,21.4C10.3,73.5,7.8,65.7,7.8,57.3 M6.4,55.7c0-24,19.5-43.6,43.6-43.6s43.7,19.5,43.7,43.6
							c0,8.7-2.6,16.7-7,23.5c3.8-6.4,6.1-14.1,6.1-22.1c0-23.7-19.2-42.9-42.9-42.9S7.1,33.4,7.1,57.1c0,8,2.3,15.7,6.1,22.1
							C8.9,72.6,6.4,64.5,6.4,55.7 M5.1,54.4c0-24.9,20.2-45.1,45.1-45.1s45.1,20.2,45.1,45.1c0,8.9-2.6,17.2-7.1,24.4
							c4-6.6,6.4-14.5,6.4-22.8c0-24.4-19.9-44.3-44.3-44.3c-24.7-0.2-44.6,19.7-44.6,44c0,8.4,2.3,16.2,6.4,22.8
							C7.7,71.8,5.1,63.4,5.1,54.4 M3.5,53C3.5,27.4,24.4,6.4,50,6.4s46.5,21,46.5,46.6c0,9.2-2.8,17.8-7.3,25.1
							c4.2-7,6.6-15,6.6-23.7C95.8,29.1,75.3,8.7,50,8.7S4.4,29.1,4.4,54.4c0,8.7,2.4,16.7,6.6,23.7C6.3,70.7,3.5,62.2,3.5,53
							 M2.1,51.6C2.1,25.1,23.7,3.5,50,3.5c26.5,0,48.1,21.6,48.1,48.1c0,9.6-2.8,18.5-7.5,25.8c4.4-7.1,6.8-15.5,6.8-24.4
							c0-26-21.3-47.2-47.2-47.2S3,27,3,53c0,8.9,2.4,17.2,6.8,24.4C4.9,69.9,2.1,61,2.1,51.6 M0.7,50c0-27.2,22.1-49.5,49.5-49.5
							c27.2,0,49.5,22.1,49.5,49.5c0,9.8-2.8,19-7.8,26.7c4.5-7.3,7-16,7-25.1C98.8,24.7,77,3,50.2,3C23.2,3,1.4,24.7,1.4,51.6
							c0,9.2,2.6,17.8,7,25.1C3.5,69,0.7,59.9,0.7,50 M0,50c0,27.2,21.8,49.5,49,50c0.2,0,0.5,0,0.7,0s0.3,0,0.5,0l0,0
							c0.3,0,0.7,0,1.2,0c27-0.5,49-22.8,49-50C100.2,22.5,77.7,0,50,0C22.5,0,0,22.5,0,50"/>
					</defs>
                    <clipPath id="SVGID_00000018951825801034133820000016650917976903988156_">
						<use xlink:href="#SVGID_00000022536776315271906940000011675065952877792933_"
                             style="overflow:visible;"/>
					</clipPath>

                    <rect style="clip-path:url(#SVGID_00000018951825801034133820000016650917976903988156_);fill:#12100B;"
                          width="100.2" height="100.2"/>
				</g>
			</g>
		</g>
            <g>
			<g>
				<path id="SVGID_00000083066005805012011620000002758256655219999129_" class="st0" d="M19.3,68.8c0-6.1,1.7-11.8,4.9-16.7
					c-2.6,4.5-4.2,9.8-4.2,15.3c0,16.6,13.4,30,30,30s30-13.4,30-30c0-5.6-1.6-10.8-4.2-15.3c3.1,4.9,4.9,10.5,4.9,16.7
					c0,16.9-13.8,30.7-30.7,30.7S19.3,85.7,19.3,68.8 M78.6,65.9c0-5.2-1.4-10.3-4-14.5c3,4.5,4.7,10.1,4.7,16
					c0,16.2-13.1,29.3-29.3,29.3S20.7,83.6,20.7,67.4c0-5.9,1.7-11.3,4.7-16c-2.4,4.2-4,9.2-4,14.5c0,15.7,12.9,28.6,28.6,28.6
					C65.9,94.4,78.6,81.5,78.6,65.9 M77.2,64.5c0-5.1-1.4-9.8-3.8-13.8c2.8,4.4,4.5,9.6,4.5,15.2c0,15.3-12.5,27.9-27.9,27.9
					S22.1,81.2,22.1,65.9c0-5.6,1.7-10.8,4.5-15.2c-2.4,4-3.8,8.7-3.8,13.8c0,15,12.2,27.2,27.2,27.2C65,91.5,77.2,79.4,77.2,64.5
					 M75.8,63.1c0-4.7-1.2-9.2-3.5-13.1c2.8,4.2,4.4,9.1,4.4,14.5C76.7,79.1,64.9,91,50.2,91S23.7,79.1,23.7,64.5
					c0-5.4,1.6-10.3,4.4-14.5c-2.3,3.8-3.5,8.2-3.5,13.1c0,14.1,11.5,25.6,25.6,25.6S75.8,77.2,75.8,63.1 M74.2,61.5
					c0-4.5-1.2-8.7-3.3-12.2c2.6,4,4.2,8.7,4.2,13.8C75.1,76.9,64,88.2,50,88.2c-13.8,0-25.1-11.1-25.1-25.1c0-5.1,1.6-9.8,4.2-13.8
					c-2.1,3.7-3.3,7.8-3.3,12.2c0,13.4,10.8,24.2,24.2,24.2C63.4,85.9,74.2,74.9,74.2,61.5 M72.8,60.1c0-4.2-1.2-8.2-3.1-11.5
					c2.4,3.7,3.8,8.2,3.8,12.9C73.5,74.6,62.9,85,50,85c-13.1,0-23.5-10.6-23.5-23.5c0-4.7,1.4-9.2,3.8-12.9
					c-1.9,3.3-3.1,7.3-3.1,11.5c0,12.5,10.3,22.8,22.8,22.8C62.7,82.9,72.8,72.6,72.8,60.1 M27.9,60.1c0-4.5,1.4-8.7,3.7-12.2
					c-1.9,3.1-3,6.8-3,10.8c0,11.8,9.6,21.4,21.4,21.4s21.4-9.6,21.4-21.4c0-4-1-7.7-3-10.8c2.3,3.5,3.7,7.7,3.7,12.2
					c0,12.2-9.9,22.1-22.1,22.1S27.9,72.3,27.9,60.1 M29.3,58.7c0-4.2,1.2-8.2,3.5-11.5c-1.7,3-2.8,6.4-2.8,10.1
					c0,11,8.9,19.9,19.9,19.9s19.9-8.9,19.9-19.9c0-3.7-1-7.1-2.8-10.1c2.3,3.3,3.5,7.3,3.5,11.5c0,11.5-9.2,20.7-20.7,20.7
					C38.7,79.4,29.3,70,29.3,58.7 M30.8,57.3c0-4,1.2-7.7,3.3-10.8c-1.6,2.8-2.4,5.9-2.4,9.2c0,10.3,8.4,18.5,18.5,18.5
					c10.3,0,18.5-8.4,18.5-18.5c0-3.3-0.9-6.6-2.4-9.2c2.1,3.1,3.3,6.8,3.3,10.8c0,10.6-8.7,19.3-19.3,19.3
					C39.4,76.5,30.8,67.9,30.8,57.3 M32.2,55.7c0-3.7,1-7.1,3.1-9.9c-1.4,2.4-2.3,5.4-2.3,8.5c0,9.4,7.7,17.1,17.1,17.1
					s17.1-7.7,17.1-17.1c0-3.1-0.9-6.1-2.3-8.5c1.9,2.8,3.1,6.3,3.1,9.9c0,9.8-8,17.8-17.8,17.8C40.2,73.7,32.2,65.7,32.2,55.7
					 M33.6,54.4c0-3.5,1-6.6,2.8-9.2C35,47.4,34.3,50,34.3,53c0,8.5,7,15.7,15.7,15.7c8.5,0,15.7-7,15.7-15.7c0-2.8-0.7-5.4-2.1-7.8
					c1.7,2.6,2.8,5.7,2.8,9.2c0,9.1-7.3,16.4-16.4,16.4C40.9,70.7,33.6,63.4,33.6,54.4 M35,53c0-3.1,1-6.1,2.6-8.4
					c-1.2,2.1-1.9,4.5-1.9,7c0,7.8,6.4,14.3,14.3,14.3s14.3-6.4,14.3-14.3c0-2.6-0.7-4.9-1.9-7C63.9,47,65,49.8,65,53
					c0,8.2-6.8,15-15,15S35,61.1,35,53 M36.6,51.6c0-2.8,0.9-5.4,2.4-7.7c-1,1.9-1.6,4-1.6,6.3c0,7,5.7,12.7,12.7,12.7
					s12.7-5.7,12.7-12.7c0-2.3-0.5-4.4-1.6-6.3c1.6,2.3,2.4,4.9,2.4,7.7c0,7.5-6.1,13.6-13.6,13.6C42.5,65,36.6,59.1,36.6,51.6
					 M38,50c0-6.4,5.1-11.7,11.5-12c0.2,0,0.3,0,0.7,0c0.2,0,0.3,0,0.7,0c6.4,0.3,11.5,5.6,11.5,12c0,6.6-5.4,12-12,12
					C43.4,62.2,38,56.8,38,50 M48.6,37.3c-16.7,0.7-30,14.5-30,31.4C18.6,85.9,32.8,100,50,100s31.4-14.1,31.4-31.4
					c0-16.9-13.4-30.7-30-31.4c-0.5,0-0.9,0-1.4,0C49.7,37.3,49.1,37.3,48.6,37.3"/>
			</g>
                <g>
				<g>
					<defs>
						<path id="SVGID_00000147178141133455455230000016254512514140152476_" d="M19.3,68.8c0-6.1,1.7-11.8,4.9-16.7
							c-2.6,4.5-4.2,9.8-4.2,15.3c0,16.6,13.4,30,30,30s30-13.4,30-30c0-5.6-1.6-10.8-4.2-15.3c3.1,4.9,4.9,10.5,4.9,16.7
							c0,16.9-13.8,30.7-30.7,30.7S19.3,85.7,19.3,68.8 M78.6,65.9c0-5.2-1.4-10.3-4-14.5c3,4.5,4.7,10.1,4.7,16
							c0,16.2-13.1,29.3-29.3,29.3S20.7,83.6,20.7,67.4c0-5.9,1.7-11.3,4.7-16c-2.4,4.2-4,9.2-4,14.5c0,15.7,12.9,28.6,28.6,28.6
							C65.9,94.4,78.6,81.5,78.6,65.9 M77.2,64.5c0-5.1-1.4-9.8-3.8-13.8c2.8,4.4,4.5,9.6,4.5,15.2c0,15.3-12.5,27.9-27.9,27.9
							S22.1,81.2,22.1,65.9c0-5.6,1.7-10.8,4.5-15.2c-2.4,4-3.8,8.7-3.8,13.8c0,15,12.2,27.2,27.2,27.2C65,91.5,77.2,79.4,77.2,64.5
							 M75.8,63.1c0-4.7-1.2-9.2-3.5-13.1c2.8,4.2,4.4,9.1,4.4,14.5C76.7,79.1,64.9,91,50.2,91S23.7,79.1,23.7,64.5
							c0-5.4,1.6-10.3,4.4-14.5c-2.3,3.8-3.5,8.2-3.5,13.1c0,14.1,11.5,25.6,25.6,25.6S75.8,77.2,75.8,63.1 M74.2,61.5
							c0-4.5-1.2-8.7-3.3-12.2c2.6,4,4.2,8.7,4.2,13.8C75.1,76.9,64,88.2,50,88.2c-13.8,0-25.1-11.1-25.1-25.1
							c0-5.1,1.6-9.8,4.2-13.8c-2.1,3.7-3.3,7.8-3.3,12.2c0,13.4,10.8,24.2,24.2,24.2C63.4,85.9,74.2,74.9,74.2,61.5 M72.8,60.1
							c0-4.2-1.2-8.2-3.1-11.5c2.4,3.7,3.8,8.2,3.8,12.9C73.5,74.6,62.9,85,50,85c-13.1,0-23.5-10.6-23.5-23.5
							c0-4.7,1.4-9.2,3.8-12.9c-1.9,3.3-3.1,7.3-3.1,11.5c0,12.5,10.3,22.8,22.8,22.8C62.7,82.9,72.8,72.6,72.8,60.1 M27.9,60.1
							c0-4.5,1.4-8.7,3.7-12.2c-1.9,3.1-3,6.8-3,10.8c0,11.8,9.6,21.4,21.4,21.4s21.4-9.6,21.4-21.4c0-4-1-7.7-3-10.8
							c2.3,3.5,3.7,7.7,3.7,12.2c0,12.2-9.9,22.1-22.1,22.1S27.9,72.3,27.9,60.1 M29.3,58.7c0-4.2,1.2-8.2,3.5-11.5
							c-1.7,3-2.8,6.4-2.8,10.1c0,11,8.9,19.9,19.9,19.9s19.9-8.9,19.9-19.9c0-3.7-1-7.1-2.8-10.1c2.3,3.3,3.5,7.3,3.5,11.5
							c0,11.5-9.2,20.7-20.7,20.7C38.7,79.4,29.3,70,29.3,58.7 M30.8,57.3c0-4,1.2-7.7,3.3-10.8c-1.6,2.8-2.4,5.9-2.4,9.2
							c0,10.3,8.4,18.5,18.5,18.5c10.3,0,18.5-8.4,18.5-18.5c0-3.3-0.9-6.6-2.4-9.2c2.1,3.1,3.3,6.8,3.3,10.8
							c0,10.6-8.7,19.3-19.3,19.3C39.4,76.5,30.8,67.9,30.8,57.3 M32.2,55.7c0-3.7,1-7.1,3.1-9.9c-1.4,2.4-2.3,5.4-2.3,8.5
							c0,9.4,7.7,17.1,17.1,17.1s17.1-7.7,17.1-17.1c0-3.1-0.9-6.1-2.3-8.5c1.9,2.8,3.1,6.3,3.1,9.9c0,9.8-8,17.8-17.8,17.8
							C40.2,73.7,32.2,65.7,32.2,55.7 M33.6,54.4c0-3.5,1-6.6,2.8-9.2C35,47.4,34.3,50,34.3,53c0,8.5,7,15.7,15.7,15.7
							c8.5,0,15.7-7,15.7-15.7c0-2.8-0.7-5.4-2.1-7.8c1.7,2.6,2.8,5.7,2.8,9.2c0,9.1-7.3,16.4-16.4,16.4
							C40.9,70.7,33.6,63.4,33.6,54.4 M35,53c0-3.1,1-6.1,2.6-8.4c-1.2,2.1-1.9,4.5-1.9,7c0,7.8,6.4,14.3,14.3,14.3
							s14.3-6.4,14.3-14.3c0-2.6-0.7-4.9-1.9-7C63.9,47,65,49.8,65,53c0,8.2-6.8,15-15,15S35,61.1,35,53 M36.6,51.6
							c0-2.8,0.9-5.4,2.4-7.7c-1,1.9-1.6,4-1.6,6.3c0,7,5.7,12.7,12.7,12.7s12.7-5.7,12.7-12.7c0-2.3-0.5-4.4-1.6-6.3
							c1.6,2.3,2.4,4.9,2.4,7.7c0,7.5-6.1,13.6-13.6,13.6C42.5,65,36.6,59.1,36.6,51.6 M38,50c0-6.4,5.1-11.7,11.5-12
							c0.2,0,0.3,0,0.7,0c0.2,0,0.3,0,0.7,0c6.4,0.3,11.5,5.6,11.5,12c0,6.6-5.4,12-12,12C43.4,62.2,38,56.8,38,50 M48.6,37.3
							c-16.7,0.7-30,14.5-30,31.4C18.6,85.9,32.8,100,50,100s31.4-14.1,31.4-31.4c0-16.9-13.4-30.7-30-31.4c-0.5,0-0.9,0-1.4,0
							C49.7,37.3,49.1,37.3,48.6,37.3"/>
					</defs>
                    <clipPath id="SVGID_00000089547206093224947240000007066233906049744561_">
						<use xlink:href="#SVGID_00000147178141133455455230000016254512514140152476_"
                             style="overflow:visible;"/>
					</clipPath>

                    <rect x="18.6" y="37.3"
                          style="clip-path:url(#SVGID_00000089547206093224947240000007066233906049744561_);fill:#12100B;"
                          width="62.9" height="62.9"/>
				</g>
			</g>
		</g>
	</g>
</g>
</svg>
