<svg xmlns="http://www.w3.org/2000/svg" width="441.687" height="393.431" viewBox="0 0 441.687 393.431">
    <g id="Grupo_890" data-name="Grupo 890" transform="translate(-65.5 -82)" opacity="0.9">
        <g id="logo-new-web2" transform="translate(66.534 82)">
            <path id="Trazado_2276" data-name="Trazado 2276" d="M504.8,0" transform="translate(-64.15 337.214)"
                  fill="none" stroke="#ba935b" stroke-width="1"></path>
            <g id="Grupo_779" data-name="Grupo 779" transform="translate(104.304 362.555)">
                <path id="Trazado_2181" data-name="Trazado 2181"
                      d="M153.146,459.914a15.115,15.115,0,0,1-4.151,2.595,11.984,11.984,0,0,1-4.584.865,7.7,7.7,0,0,1-5.535-1.9,6.524,6.524,0,0,1-2.076-5.016,6.817,6.817,0,0,1,2.768-5.708c1.9-1.384,4.5-1.989,7.87-1.989.865,0,1.816.087,2.681.173a15.6,15.6,0,0,1,2.768.519v-.173a5.023,5.023,0,0,0-1.3-3.892,5.371,5.371,0,0,0-3.978-1.3,11.39,11.39,0,0,0-4.065.951,10.518,10.518,0,0,1-2.941.951,1.523,1.523,0,0,1-1.124-.519,2.393,2.393,0,0,1-.432-1.384c0-.951.865-1.643,2.508-2.335a19.947,19.947,0,0,1,6.573-.951c2.681,0,4.757.692,6.141,2.076s2.076,3.373,2.076,6.141v10.465h1.124a4.035,4.035,0,0,1,2.162.346,1.347,1.347,0,0,1,.519,1.211,1.711,1.711,0,0,1-.432,1.211,2.2,2.2,0,0,1-1.384.433H154.7a1.432,1.432,0,0,1-1.038-.433,1.956,1.956,0,0,1-.519-1.124Zm-.173-7.351a13.228,13.228,0,0,0-2.508-.606,10.632,10.632,0,0,0-2.335-.173,11.537,11.537,0,0,0-5.622,1.211,3.619,3.619,0,0,0-2.076,3.2,3.2,3.2,0,0,0,1.3,2.595,5.152,5.152,0,0,0,3.287,1.038,10,10,0,0,0,5.449-1.557c1.643-1.038,2.508-2.076,2.508-3.2v-2.508Z"
                      transform="translate(-136.8 -432.584)" fill="#ba935b"></path>
                <path id="Trazado_2182" data-name="Trazado 2182"
                      d="M175.627,459.581h7.7a1.791,1.791,0,0,1,1.3.432,1.569,1.569,0,0,1,.432,1.211,1.79,1.79,0,0,1-.432,1.3,2.163,2.163,0,0,1-1.47.346H168.016a2.2,2.2,0,0,1-1.384-.432,1.4,1.4,0,0,1-.432-1.211,1.711,1.711,0,0,1,.432-1.211,2.29,2.29,0,0,1,1.47-.432h4.065V444.792h-1.557a6.068,6.068,0,0,1-2.768-.346,1.518,1.518,0,0,1-.519-1.3,1.711,1.711,0,0,1,.432-1.211,2.2,2.2,0,0,1,1.384-.432h5.276a1.553,1.553,0,0,1,.951.26.7.7,0,0,1,.346.692v3.892a16.333,16.333,0,0,1,4.584-4.065,10.491,10.491,0,0,1,5.1-1.384,5.754,5.754,0,0,1,3.373.865,2.473,2.473,0,0,1,1.3,2.162,2.22,2.22,0,0,1-.605,1.557,1.842,1.842,0,0,1-1.384.605,5.439,5.439,0,0,1-1.816-.692,4.188,4.188,0,0,0-2.249-.692,6.933,6.933,0,0,0-3.805,1.3,22.453,22.453,0,0,0-4.411,4.065v9.514Z"
                      transform="translate(-140.773 -432.597)" fill="#ba935b"></path>
                <path id="Trazado_2183" data-name="Trazado 2183"
                      d="M214.208,441.784a2.672,2.672,0,0,1,1.643.432,1.672,1.672,0,0,1,0,2.422,2.29,2.29,0,0,1-1.47.432h-9.341v7.7c0,2.508.346,4.238.951,5.016a4.319,4.319,0,0,0,3.373,1.211,13.964,13.964,0,0,0,5.016-1.211,17.652,17.652,0,0,1,3.633-1.211,1.822,1.822,0,0,1,1.124.432,1.432,1.432,0,0,1,.432,1.124,1.842,1.842,0,0,1-.605,1.384,8.39,8.39,0,0,1-1.9,1.124,26.918,26.918,0,0,1-4.065,1.3,16.387,16.387,0,0,1-3.373.432,10.581,10.581,0,0,1-4.584-.865,6.278,6.278,0,0,1-3.46-4.5,31.068,31.068,0,0,1-.173-3.46v-8.389h-3.892a2.045,2.045,0,0,1-1.384-.346,1.711,1.711,0,0,1-.432-1.211,1.365,1.365,0,0,1,.605-1.3,5.886,5.886,0,0,1,2.595-.346h2.595v-5.968a2.29,2.29,0,0,1,.432-1.47,1.7,1.7,0,0,1,1.384-.519,1.428,1.428,0,0,1,1.384.605,5.316,5.316,0,0,1,.432,2.595v4.67h9.081Z"
                      transform="translate(-144.759 -431.665)" fill="#ba935b"></path>
                <path id="Trazado_2184" data-name="Trazado 2184"
                      d="M230.438,450.154h15.049a6.922,6.922,0,0,0-2.335-4.411,6.991,6.991,0,0,0-4.757-1.73,7.938,7.938,0,0,0-5.189,1.643,7.586,7.586,0,0,0-2.768,4.5m-.173,3.027a6.931,6.931,0,0,0,2.249,5.189,8.374,8.374,0,0,0,5.708,1.816,14.357,14.357,0,0,0,5.881-1.47,16.6,16.6,0,0,1,3.892-1.47,1.483,1.483,0,0,1,1.557,1.557,1.708,1.708,0,0,1-.519,1.211,9.147,9.147,0,0,1-1.557,1.124,24.151,24.151,0,0,1-4.757,1.73,19.053,19.053,0,0,1-4.843.605,11.953,11.953,0,0,1-8.476-3.027,11.808,11.808,0,0,1,.173-16.346,12.475,12.475,0,0,1,8.735-3.2,11.469,11.469,0,0,1,8.13,2.941,9.284,9.284,0,0,1,3.2,7.178,2.168,2.168,0,0,1-.519,1.73,6.06,6.06,0,0,1-2.941.432H230.265Z"
                      transform="translate(-148.88 -432.597)" fill="#ba935b"></path>
                <path id="Trazado_2185" data-name="Trazado 2185"
                      d="M275.652,458.2a2.474,2.474,0,0,1,1.47.432,1.672,1.672,0,0,1,0,2.422,2.2,2.2,0,0,1-1.384.432H260.689a2.473,2.473,0,0,1-1.47-.432,1.451,1.451,0,0,1-.519-1.211,1.711,1.711,0,0,1,.432-1.211,2.2,2.2,0,0,1,1.384-.432h3.892V444.1h-3.719a2.474,2.474,0,0,1-1.47-.432,1.672,1.672,0,0,1,0-2.422,2.2,2.2,0,0,1,1.384-.432h3.633v-1.557c0-2.768.778-4.843,2.422-6.054,1.557-1.3,4.151-1.9,7.7-1.9a8.453,8.453,0,0,1,3.805.605,1.765,1.765,0,0,1,1.211,1.816,1.57,1.57,0,0,1-.519,1.211,1.787,1.787,0,0,1-1.384.433,17.3,17.3,0,0,1-1.989-.259,17.256,17.256,0,0,0-2.681-.259c-1.73,0-3.027.346-3.719,1.124-.779.692-1.124,1.9-1.124,3.632v1.3h8.216a2.474,2.474,0,0,1,1.47.432,1.672,1.672,0,0,1,0,2.422,2.2,2.2,0,0,1-1.384.432h-8.043v14.1h7.438Z"
                      transform="translate(-153.272 -431.3)" fill="#ba935b"></path>
                <path id="Trazado_2186" data-name="Trazado 2186"
                      d="M303.846,459.914a15.116,15.116,0,0,1-4.151,2.595,11.984,11.984,0,0,1-4.584.865,7.7,7.7,0,0,1-5.535-1.9,6.524,6.524,0,0,1-2.076-5.016,6.817,6.817,0,0,1,2.768-5.708c1.9-1.384,4.5-1.989,7.87-1.989.865,0,1.816.087,2.681.173a15.6,15.6,0,0,1,2.768.519v-.173a5.023,5.023,0,0,0-1.3-3.892,5.371,5.371,0,0,0-3.978-1.3,11.39,11.39,0,0,0-4.065.951,10.519,10.519,0,0,1-2.941.951,1.523,1.523,0,0,1-1.124-.519,2.393,2.393,0,0,1-.432-1.384c0-.951.865-1.643,2.508-2.335a19.947,19.947,0,0,1,6.573-.951c2.681,0,4.757.692,6.141,2.076s2.076,3.373,2.076,6.141v10.465h1.124a4.035,4.035,0,0,1,2.162.346,1.347,1.347,0,0,1,.519,1.211,1.711,1.711,0,0,1-.432,1.211,2.2,2.2,0,0,1-1.384.433H305.4a1.432,1.432,0,0,1-1.038-.433,1.956,1.956,0,0,1-.519-1.124Zm-.173-7.351a13.228,13.228,0,0,0-2.508-.606,10.632,10.632,0,0,0-2.335-.173,11.537,11.537,0,0,0-5.622,1.211,3.619,3.619,0,0,0-2.076,3.2,3.2,3.2,0,0,0,1.3,2.595,5.151,5.151,0,0,0,3.286,1.038,10,10,0,0,0,5.449-1.557c1.643-1.038,2.508-2.076,2.508-3.2v-2.508Z"
                      transform="translate(-157.164 -432.584)" fill="#ba935b"></path>
                <path id="Trazado_2187" data-name="Trazado 2187"
                      d="M335.414,442.876V442.7a1.494,1.494,0,0,1,.432-1.124,2.045,2.045,0,0,1,1.384-.346,1.518,1.518,0,0,1,1.3.519,4.416,4.416,0,0,1,.346,2.249v4.324a1.529,1.529,0,0,1-1.73,1.73,1.738,1.738,0,0,1-1.124-.346,8.824,8.824,0,0,1-1.124-1.47,9.477,9.477,0,0,0-2.681-2.854,7.1,7.1,0,0,0-3.633-.951,8.1,8.1,0,0,0-5.881,2.162,7.36,7.36,0,0,0-2.249,5.535,7.409,7.409,0,0,0,7.7,7.784,10.987,10.987,0,0,0,2.941-.432,8.536,8.536,0,0,0,2.681-1.3,11.854,11.854,0,0,0,1.211-.865,4.918,4.918,0,0,1,2.335-1.211,1.493,1.493,0,0,1,1.124.432,1.328,1.328,0,0,1,.432,1.124c0,1.211-1.124,2.508-3.459,3.719a14.8,14.8,0,0,1-7.351,1.9,11.549,11.549,0,0,1-8.389-3.2,11.277,11.277,0,0,1,0-16.087,11.485,11.485,0,0,1,8.3-3.2,12.567,12.567,0,0,1,3.546.519,18.281,18.281,0,0,1,3.892,1.557"
                      transform="translate(-161.055 -432.584)" fill="#ba935b"></path>
                <path id="Trazado_2188" data-name="Trazado 2188"
                      d="M364.908,441.784a2.673,2.673,0,0,1,1.643.432,1.672,1.672,0,0,1,0,2.422,2.291,2.291,0,0,1-1.47.432h-9.341v7.7c0,2.508.346,4.238.951,5.016a4.319,4.319,0,0,0,3.373,1.211,13.964,13.964,0,0,0,5.016-1.211,17.651,17.651,0,0,1,3.632-1.211,1.822,1.822,0,0,1,1.124.432,1.432,1.432,0,0,1,.432,1.124,1.842,1.842,0,0,1-.605,1.384,8.389,8.389,0,0,1-1.9,1.124,24.153,24.153,0,0,1-4.065,1.3,16.387,16.387,0,0,1-3.373.432,10.581,10.581,0,0,1-4.584-.865,6.278,6.278,0,0,1-3.46-4.5,31.047,31.047,0,0,1-.173-3.46v-8.389h-3.892a2.045,2.045,0,0,1-1.384-.346,1.711,1.711,0,0,1-.432-1.211,1.365,1.365,0,0,1,.605-1.3,5.885,5.885,0,0,1,2.595-.346h2.595v-5.968a2.291,2.291,0,0,1,.432-1.47,1.7,1.7,0,0,1,1.384-.519,1.428,1.428,0,0,1,1.384.605,5.317,5.317,0,0,1,.432,2.595v4.67h9.081Z"
                      transform="translate(-165.123 -431.665)" fill="#ba935b"></path>
                <path id="Trazado_2189" data-name="Trazado 2189"
                      d="M400.917,452.157a10.765,10.765,0,0,1-3.373,8.13,13.81,13.81,0,0,1-17.47,0,11.38,11.38,0,0,1,0-16.173,13.81,13.81,0,0,1,17.47,0,10.448,10.448,0,0,1,3.373,8.043M388.808,460.2a7.957,7.957,0,0,0,5.795-2.249,7.625,7.625,0,0,0,2.249-5.795,8.1,8.1,0,0,0-2.249-5.795,7.754,7.754,0,0,0-5.795-2.249,7.7,7.7,0,0,0-8.043,8.043,8.1,8.1,0,0,0,2.249,5.795,7.819,7.819,0,0,0,5.795,2.249"
                      transform="translate(-169.217 -432.611)" fill="#ba935b"></path>
            </g>
            <g id="Grupo_781" data-name="Grupo 781" transform="translate(121.082)">
                <g id="Grupo_780" data-name="Grupo 780">
                    <path id="Trazado_2190" data-name="Trazado 2190"
                          d="M354.256,111.128a99.028,99.028,0,1,0-101.277,99.028h4.5A99.12,99.12,0,0,0,354.256,111.128ZM255.228,13.4a97.851,97.851,0,0,1,97.731,97.731,96.625,96.625,0,0,1-15.395,52.584,96.174,96.174,0,1,0-164.5,0,97.135,97.135,0,0,1-15.395-52.671C157.5,57.246,201.346,13.4,255.228,13.4Zm0,5.708A94.857,94.857,0,0,1,335.142,165.1a93.406,93.406,0,1,0-159.828,0,94.857,94.857,0,0,1,79.914-145.99Zm0,5.622a92.034,92.034,0,0,1,77.493,141.666,89.763,89.763,0,0,0,13.06-46.79,90.69,90.69,0,0,0-90.552-90.552c-49.9.086-90.552,40.649-90.552,90.552a89.763,89.763,0,0,0,13.06,46.79A92.034,92.034,0,0,1,255.228,24.727Zm0,5.708A89.211,89.211,0,0,1,330.3,167.777a86.854,86.854,0,0,0,12.627-45.319,87.7,87.7,0,1,0-162.769,45.319A89.211,89.211,0,0,1,255.228,30.435Zm0,5.708a86.388,86.388,0,0,1,72.736,133.017,84.844,84.844,0,1,0-145.3,0A86.389,86.389,0,0,1,255.228,36.143Zm0,5.622a83.566,83.566,0,0,1,70.314,128.693,81.99,81.99,0,1,0-140.455,0A83.566,83.566,0,0,1,255.228,41.765Zm0,5.708A80.685,80.685,0,0,1,323.293,171.5a79.222,79.222,0,1,0-136.131,0A80.685,80.685,0,0,1,255.228,47.473Zm0,5.622a77.956,77.956,0,0,1,77.839,77.839,77.125,77.125,0,0,1-12.281,41.86,75.626,75.626,0,0,0,10.724-39.006,76.368,76.368,0,0,0-152.737,0A75.626,75.626,0,0,0,189.5,172.793a77.125,77.125,0,0,1-12.281-41.86A78.216,78.216,0,0,1,255.228,53.095Zm0,5.708a75.077,75.077,0,0,1,74.984,74.984,74.224,74.224,0,0,1-11.849,40.39,72.715,72.715,0,0,0,10.292-37.535,73.514,73.514,0,1,0-136.65,37.535A75.039,75.039,0,0,1,255.228,58.8Zm0,5.708a72.112,72.112,0,0,1,60.714,111.05,70.66,70.66,0,1,0-121.428,0,72.112,72.112,0,0,1,60.714-111.05Zm0,5.622a69.356,69.356,0,0,1,58.379,106.812,67.192,67.192,0,0,0,9.514-34.595,67.806,67.806,0,0,0-135.612,0,67.192,67.192,0,0,0,9.514,34.595A69.356,69.356,0,0,1,255.228,70.133ZM188.719,142.35a66.509,66.509,0,0,1,133.017,0A65.814,65.814,0,0,1,311.1,178.329,64.282,64.282,0,0,0,320.18,145.2a64.952,64.952,0,0,0-129.9,0,64.282,64.282,0,0,0,9.081,33.125A66.54,66.54,0,0,1,188.719,142.35Zm63.222,66.422a63.655,63.655,0,1,1,6.573,0c-1.124.087-2.162.087-3.287.087h0C254.19,208.859,253.066,208.772,251.941,208.772Z"
                          transform="translate(-156.2 -12.1)" fill="#ba935b"></path>
                    <path id="Trazado_2191" data-name="Trazado 2191"
                          d="M263.752,97.486c-.951-.086-1.816-.086-2.768-.086s-1.816,0-2.768.086a62.184,62.184,0,1,0,5.535,0Zm-2.768,122.9a60.784,60.784,0,0,1-51.027-93.839,58.527,58.527,0,0,0-8.3,30.184,59.33,59.33,0,1,0,110.358-30.184,60.784,60.784,0,0,1-51.028,93.839ZM287.8,125.508a26.725,26.725,0,0,1-53.449,0,26.213,26.213,0,0,1,4.757-15.135,24.759,24.759,0,0,0-3.2,12.281,25.254,25.254,0,1,0,47.309-12.281A27.184,27.184,0,0,1,287.8,125.508Zm-54.919,0a28.108,28.108,0,0,0,56.217,0,27.75,27.75,0,0,0-3.632-13.838,29.152,29.152,0,0,1,5.189,16.692,29.579,29.579,0,1,1-53.968-16.692A27.017,27.017,0,0,0,232.876,125.508Zm-2.768,2.854a30.962,30.962,0,1,0,57.86-15.395,32.433,32.433,0,1,1-53.622,0A29.2,29.2,0,0,0,230.108,128.362Zm32.173-29.579a23.957,23.957,0,1,1-2.595,0H260.9A7.381,7.381,0,0,1,262.282,98.784ZM227.254,131.13a33.817,33.817,0,0,0,67.633,0,32.851,32.851,0,0,0-4.584-16.865,35.287,35.287,0,1,1-58.465,0A32.851,32.851,0,0,0,227.254,131.13Zm-2.854,2.854a36.584,36.584,0,1,0,73.168,0,36.075,36.075,0,0,0-5.016-18.422,38.141,38.141,0,1,1-63.309,0A37.978,37.978,0,0,0,224.4,133.984Zm-2.854,2.854a39.438,39.438,0,1,0,73.514-19.892,41,41,0,1,1-68.152,0A39.784,39.784,0,0,0,221.546,136.838Zm-2.854,2.854a42.292,42.292,0,1,0,78.79-21.362,43.763,43.763,0,1,1-72.822,0A40.91,40.91,0,0,0,218.692,139.692Zm-2.854,2.854a45.146,45.146,0,0,0,90.293,0,44.506,44.506,0,0,0-6.227-22.833,46.617,46.617,0,1,1-77.839,0A45.119,45.119,0,0,0,215.838,142.546Zm-2.768,2.768a48,48,0,1,0,89.341-24.3,49.471,49.471,0,1,1-82.682,0A47.652,47.652,0,0,0,213.07,145.314Zm-2.854,2.854a50.768,50.768,0,1,0,94.531-25.773,52.312,52.312,0,1,1-96.087,28.627,51.624,51.624,0,0,1,8.562-28.627A51.356,51.356,0,0,0,210.216,148.168Zm-2.854,2.854a53.622,53.622,0,1,0,99.806-27.243,55.092,55.092,0,1,1-92.369,0A53.172,53.172,0,0,0,207.362,151.022Zm-2.854,2.854a56.476,56.476,0,0,0,112.952,0,55.848,55.848,0,0,0-7.87-28.714,57.947,57.947,0,1,1-97.212,0A55.849,55.849,0,0,0,204.508,153.876Z"
                          transform="translate(-161.956 -23.626)" fill="#ba935b"></path>
                </g>
            </g>
            <g id="Grupo_785" data-name="Grupo 785" transform="translate(0 223.137)">
                <g id="Grupo_782" data-name="Grupo 782" transform="translate(1.384 70.66)">
                    <path id="Trazado_2192" data-name="Trazado 2192"
                          d="M17.886,352.1h6.4c4.324,0,6.746,2.595,6.746,5.881A5.527,5.527,0,0,1,27.4,363.17l3.719,4.584H28.784l-3.2-4.065a8.4,8.4,0,0,1-1.557.087H19.7v3.892H17.8V352.1Zm6.573,10.033a4.208,4.208,0,1,0,.086-8.389h-4.67v8.389H24.46Z"
                          transform="translate(-17.8 -351.841)" fill="#ba935b"></path>
                    <path id="Trazado_2193" data-name="Trazado 2193"
                          d="M42.9,352.1H54.749v1.73H44.8v4.757h9.254v1.643H44.8v5.881H55.095v1.73H42.9Z"
                          transform="translate(-21.192 -351.841)" fill="#ba935b"></path>
                    <path id="Trazado_2194" data-name="Trazado 2194"
                          d="M65.8,365.552l.865-1.47a7.412,7.412,0,0,0,5.276,2.162c1.989,0,4.151-.865,4.151-2.854,0-1.816-1.989-2.335-4.065-2.854-2.768-.692-5.622-1.557-5.622-4.5,0-2.768,2.681-4.238,5.449-4.238a8.4,8.4,0,0,1,5.276,1.73L76.351,355a6.854,6.854,0,0,0-4.5-1.47c-1.557,0-3.546.692-3.546,2.508,0,1.643,1.816,2.162,3.892,2.681,2.941.692,5.795,1.73,5.795,4.67,0,3.2-3.2,4.584-6.227,4.584A7.855,7.855,0,0,1,65.8,365.552Z"
                          transform="translate(-24.286 -351.8)" fill="#ba935b"></path>
                    <path id="Trazado_2195" data-name="Trazado 2195" d="M90,352.1h1.9v15.654H90Z"
                          transform="translate(-27.556 -351.841)" fill="#ba935b"></path>
                    <path id="Trazado_2196" data-name="Trazado 2196"
                          d="M102.9,352.1h5.968c5.016,0,8.216,3.546,8.216,7.87a7.823,7.823,0,0,1-8.216,7.87H102.9Zm5.881,13.924a6.143,6.143,0,1,0,0-12.281h-3.892v12.281Z"
                          transform="translate(-29.299 -351.841)" fill="#ba935b"></path>
                    <path id="Trazado_2197" data-name="Trazado 2197"
                          d="M129.2,352.1h11.849v1.73H131.1v4.757h9.254v1.643H131.1v5.881h10.292v1.73H129.2Z"
                          transform="translate(-32.853 -351.841)" fill="#ba935b"></path>
                    <path id="Trazado_2198" data-name="Trazado 2198"
                          d="M152.9,352.1h1.9l7.784,10.206c.778,1.038,1.643,2.508,1.643,2.508V352.1h1.9v15.654h-1.9l-7.7-9.946a20.681,20.681,0,0,1-1.73-2.681v12.627h-1.9Z"
                          transform="translate(-36.056 -351.841)" fill="#ba935b"></path>
                    <path id="Trazado_2199" data-name="Trazado 2199"
                          d="M178.3,359.843a7.994,7.994,0,0,1,8.13-8.043,8.176,8.176,0,0,1,5.362,1.989l-1.124,1.3a6.362,6.362,0,1,0,.259,9.168l1.211,1.3a8.021,8.021,0,0,1-5.795,2.335A7.869,7.869,0,0,1,178.3,359.843Z"
                          transform="translate(-39.488 -351.8)" fill="#ba935b"></path>
                    <path id="Trazado_2200" data-name="Trazado 2200"
                          d="M203.5,352.1h11.849v1.73H205.4v4.757h9.254v1.643H205.4v5.881h10.292v1.73H203.5Z"
                          transform="translate(-42.893 -351.841)" fill="#ba935b"></path>
                    <path id="Trazado_2201" data-name="Trazado 2201"
                          d="M226.4,365.552l.865-1.47a7.413,7.413,0,0,0,5.276,2.162c1.989,0,4.151-.865,4.151-2.854,0-1.816-1.989-2.335-4.065-2.854-2.768-.692-5.622-1.557-5.622-4.5,0-2.768,2.681-4.238,5.449-4.238a8.4,8.4,0,0,1,5.276,1.73l-.778,1.47a6.854,6.854,0,0,0-4.5-1.47c-1.557,0-3.546.692-3.546,2.508,0,1.643,1.816,2.162,3.892,2.681,2.941.692,5.795,1.73,5.795,4.67,0,3.2-3.2,4.584-6.227,4.584A7.855,7.855,0,0,1,226.4,365.552Z"
                          transform="translate(-45.988 -351.8)" fill="#ba935b"></path>
                    <path id="Trazado_2202" data-name="Trazado 2202"
                          d="M262.7,361.914a3.114,3.114,0,1,1,3.114,3.114A3.1,3.1,0,0,1,262.7,361.914Z"
                          transform="translate(-50.893 -352.746)" fill="#ba935b"></path>
                    <path id="Trazado_2203" data-name="Trazado 2203"
                          d="M292.7,352.1h7.178c2.595,0,4.5,1.211,4.5,3.719a3.31,3.31,0,0,1-1.73,2.941A4.249,4.249,0,0,1,305.933,363c0,3.027-2.335,4.843-5.881,4.843h-7.265V352.1Zm7.351,6.054a2.112,2.112,0,0,0,2.249-2.162c0-1.384-.951-2.162-2.595-2.162h-5.016v4.411h5.362Zm-.173,7.87c2.422,0,3.978-1.124,3.978-3.114,0-1.9-1.384-3.114-3.546-3.114h-5.622v6.227Z"
                          transform="translate(-54.947 -351.841)" fill="#ba935b"></path>
                    <path id="Trazado_2204" data-name="Trazado 2204"
                          d="M323.538,352h1.73l7.351,15.741H330.63l-1.47-3.027h-9.6l-1.47,3.027H316.1Zm4.93,11.157-2.854-6.054c-.519-1.124-1.124-2.595-1.211-2.854-.086.173-.692,1.643-1.211,2.854l-2.854,6.054Z"
                          transform="translate(-58.108 -351.827)" fill="#ba935b"></path>
                    <path id="Trazado_2205" data-name="Trazado 2205"
                          d="M347.814,360.316,341.5,352.1h2.249l4.151,5.276a13.99,13.99,0,0,1,.865,1.3,12.329,12.329,0,0,1,.951-1.3l4.065-5.276h2.249l-6.314,8.216v7.438h-1.9v-7.438Z"
                          transform="translate(-61.541 -351.841)" fill="#ba935b"></path>
                    <path id="Trazado_2206" data-name="Trazado 2206"
                          d="M379.8,352.1h1.9v6.487h9.081V352.1h1.9v15.654h-1.9V360.23H381.7v7.524h-1.9Z"
                          transform="translate(-66.716 -351.841)" fill="#ba935b"></path>
                    <path id="Trazado_2207" data-name="Trazado 2207"
                          d="M411.038,352h1.73l7.351,15.741H418.13l-1.47-3.027h-9.6l-1.47,3.027H403.6Zm5.016,11.157L413.2,357.1c-.519-1.124-1.124-2.595-1.211-2.854-.086.173-.692,1.643-1.211,2.854l-2.854,6.054Z"
                          transform="translate(-69.932 -351.827)" fill="#ba935b"></path>
                    <path id="Trazado_2208" data-name="Trazado 2208"
                          d="M431.686,352.1h6.4c4.324,0,6.746,2.595,6.746,5.881a5.527,5.527,0,0,1-3.632,5.189l3.719,4.584h-2.335l-3.2-4.065a8.4,8.4,0,0,1-1.557.087H433.5v3.892h-1.9V352.1Zm6.573,10.033a4.208,4.208,0,1,0,.086-8.389h-4.67v8.389h4.584Z"
                          transform="translate(-73.716 -351.841)" fill="#ba935b"></path>
                    <path id="Trazado_2209" data-name="Trazado 2209"
                          d="M456.7,352.1h7.178c2.595,0,4.5,1.211,4.5,3.719a3.31,3.31,0,0,1-1.73,2.941A4.249,4.249,0,0,1,469.933,363c0,3.027-2.335,4.843-5.881,4.843h-7.265V352.1Zm7.351,6.054a2.113,2.113,0,0,0,2.249-2.162c0-1.384-.951-2.162-2.595-2.162h-5.1v4.411h5.449Zm-.259,7.87c2.422,0,3.978-1.124,3.978-3.114,0-1.9-1.384-3.114-3.546-3.114h-5.708v6.227Z"
                          transform="translate(-77.107 -351.841)" fill="#ba935b"></path>
                    <path id="Trazado_2210" data-name="Trazado 2210"
                          d="M481.1,359.843a8.13,8.13,0,1,1,8.13,8.043A7.993,7.993,0,0,1,481.1,359.843Zm14.357,0a6.143,6.143,0,1,0-6.141,6.314A6.2,6.2,0,0,0,495.457,359.843Z"
                          transform="translate(-80.405 -351.8)" fill="#ba935b"></path>
                    <path id="Trazado_2211" data-name="Trazado 2211"
                          d="M509.886,352.1h6.4c4.324,0,6.746,2.595,6.746,5.881a5.527,5.527,0,0,1-3.633,5.189l3.719,4.584h-2.335l-3.2-4.065a8.4,8.4,0,0,1-1.557.087H511.7v3.892h-1.9V352.1Zm6.573,10.033a4.208,4.208,0,1,0,.087-8.389h-4.67v8.389h4.584Z"
                          transform="translate(-84.283 -351.841)" fill="#ba935b"></path>
                </g>
                <g id="Grupo_784" data-name="Grupo 784" transform="translate(0)">
                    <g id="Grupo_783" data-name="Grupo 783">
                        <path id="Trazado_2212" data-name="Trazado 2212"
                              d="M37.735,270.1a21.535,21.535,0,1,0,21.622,21.535A21.593,21.593,0,0,0,37.735,270.1m19.546,21.622a19.581,19.581,0,0,1-19.546,19.546,19.546,19.546,0,0,1,0-39.092,19.526,19.526,0,0,1,19.546,19.546"
                              transform="translate(-16.2 -270.1)" fill="#ba935b"></path>
                        <rect id="Rect&#xE1;ngulo_649" data-name="Rect&#xE1;ngulo 649" width="2.076" height="43.157"
                              transform="translate(182.488 0)" fill="#ba935b"></rect>
                        <path id="Trazado_2213" data-name="Trazado 2213"
                              d="M317.022,313.257a21.686,21.686,0,0,0,21.708-21.535v-2.076H316.589v2.162h19.979a19.546,19.546,0,1,1-19.546-19.719,19.158,19.158,0,0,1,13.665,5.622l.346.346,1.47-1.384-.346-.346a21.583,21.583,0,1,0-15.135,36.93"
                              transform="translate(-53.928 -270.1)" fill="#ba935b"></path>
                        <rect id="Rect&#xE1;ngulo_650" data-name="Rect&#xE1;ngulo 650" width="2.076" height="43.157"
                              transform="translate(341.711 0)" fill="#ba935b"></rect>
                        <path id="Trazado_2214" data-name="Trazado 2214"
                              d="M514.035,270.1v40.13l-31.654-39.871-.173-.259H479.7v43.157h2.076v-40.13l31.741,39.957.173.173H516.2V270.1Z"
                              transform="translate(-78.832 -270.1)" fill="#ba935b"></path>
                        <path id="Trazado_2215" data-name="Trazado 2215"
                              d="M144.452,295.96a12.95,12.95,0,0,0-1.038-25.86H124.3v2.076h19.114a10.9,10.9,0,0,1,0,21.795H124.3v2.076h17.73l9.946,17.211v.087H154.4Z"
                              transform="translate(-30.807 -270.1)" fill="#ba935b"></path>
                    </g>
                </g>
            </g>
            <g id="Grupo_786" data-name="Grupo 786" transform="translate(80.26 369.56)">
                <path id="Trazado_2216" data-name="Trazado 2216"
                      d="M109.951,447.184v1.124H109V439.4h1.038v3.459a2.829,2.829,0,0,1,2.508-1.3,3.193,3.193,0,0,1,3.114,3.46,3.243,3.243,0,0,1-3.114,3.46A2.878,2.878,0,0,1,109.951,447.184Zm4.584-2.162a2.255,2.255,0,1,0-2.249,2.422A2.277,2.277,0,0,0,114.535,445.022Z"
                      transform="translate(-109 -439.4)" fill="#ba935b"></path>
                <path id="Trazado_2217" data-name="Trazado 2217"
                      d="M119.224,449.724c.692,0,1.124-.173,1.643-1.124l.173-.26L118.1,442.2h1.038l2.076,4.411a3.61,3.61,0,0,1,.259.778,4.262,4.262,0,0,1,.346-.778l1.989-4.411h1.038l-3.114,6.919a2.316,2.316,0,0,1-2.422,1.643v-1.038Z"
                      transform="translate(-110.23 -439.778)" fill="#ba935b"></path>
            </g>
        </g>
        <line id="L&#xED;nea_346" data-name="L&#xED;nea 346" x2="441.085" transform="translate(65.5 421.622)"
              fill="none" stroke="#ba935b" stroke-miterlimit="10" stroke-width="1"></line>
    </g>
</svg>