<svg width="66" height="77" viewBox="0 0 66 77" fill="none" xmlns="http://www.w3.org/2000/svg">
    <g clip-path="url(#clip0)">
        <path d="M0 65.1814C0.472272 65.062 0.59034 64.8232 0.59034 64.2263V59.6899C0.59034 59.093 0.472272 58.8542 0 58.8542H2.83363C4.48658 58.8542 5.31306 59.3318 5.31306 60.4062C5.31306 60.8837 5.07692 61.2418 4.72272 61.6C4.36852 61.9581 3.77817 62.0775 3.3059 62.0775C4.25045 62.0775 4.95885 62.4356 5.19499 63.2713L5.66726 64.5845C5.78533 65.062 6.13953 65.3008 6.49374 65.4201V65.5395H4.36852C4.25045 65.4201 4.13238 65.062 4.01431 64.5845L3.54204 63.2713C3.3059 62.555 3.06977 62.4356 2.5975 62.4356H2.12522V64.5845C2.12522 65.062 2.36136 65.4201 2.71556 65.5395H0V65.1814ZM2.12522 61.7194H2.47943C3.3059 61.7194 3.66011 61.2418 3.66011 60.1674C3.66011 59.2124 3.3059 58.7349 2.47943 58.7349H2.12522V61.7194Z"
              fill="#CDAC81"/>
        <path d="M15.8212 62.555L15.5851 65.062H10.7443C11.2166 64.9426 11.3346 64.7038 11.3346 64.1069V59.5705C11.3346 58.9736 11.2166 58.7349 10.7443 58.7349H15.467L15.5851 61.0031C15.2309 59.6899 14.5225 58.9736 13.4599 58.9736H12.9876V61.8387H13.3418C14.0502 61.8387 14.5225 61.4806 14.7586 60.6449V63.2713C14.5225 62.4356 14.1683 62.0775 13.3418 62.0775H12.9876V65.062H13.5779C14.1683 65.062 14.6406 64.9426 14.9948 64.4651C15.2309 63.9876 15.5851 63.3907 15.8212 62.555Z"
              fill="#CDAC81"/>
        <path d="M20.4256 64.7038L20.7798 62.9131C21.0159 64.2263 21.8424 64.9426 22.905 64.9426C23.6134 64.9426 23.9676 64.5845 23.9676 63.9876C23.9676 63.51 23.7315 63.2713 23.1411 62.9131L21.8424 62.3162C20.8979 61.8387 20.4256 61.2418 20.4256 60.4062C20.4256 59.8093 20.6617 59.3317 21.0159 58.9736C21.3701 58.6155 21.9605 58.3767 22.7869 58.3767C23.6134 58.3767 24.3218 58.4961 24.9122 58.8542L24.4399 60.5255C24.2038 59.3317 23.4954 58.7348 22.5508 58.7348C21.8424 58.7348 21.4882 59.093 21.4882 59.5705C21.4882 60.048 21.7243 60.2868 22.3147 60.6449L23.7315 61.3612C24.676 61.8387 25.0302 62.3162 25.0302 63.1519C25.0302 63.7488 24.7941 64.3457 24.3218 64.7038C23.8496 65.1814 23.2592 65.3007 22.5508 65.3007C21.9605 65.3007 21.134 65.062 20.4256 64.7038Z"
              fill="#CDAC81"/>
        <path d="M34.8298 62.555L34.5937 65.062H29.7529C30.2252 64.9426 30.3432 64.7038 30.3432 64.1069V59.5705C30.3432 58.9736 30.2252 58.7349 29.7529 58.7349H34.4756L34.5937 61.0031C34.2395 59.6899 33.5311 58.9736 32.4685 58.9736H31.8781V61.8387H32.2323C32.9407 61.8387 33.413 61.4806 33.6491 60.6449V63.2713C33.413 62.4356 33.0588 62.0775 32.2323 62.0775H31.8781V65.062H32.4685C33.0588 65.062 33.5311 64.9426 33.8853 64.4651C34.2395 63.9876 34.4756 63.3907 34.8298 62.555Z"
              fill="#CDAC81"/>
        <path d="M39.4343 65.1814C39.9066 65.062 40.0247 64.8232 40.0247 64.2263V59.6899C40.0247 59.093 39.9066 58.8542 39.4343 58.8542H42.268C43.9209 58.8542 44.7474 59.3318 44.7474 60.4062C44.7474 60.8837 44.5112 61.2418 44.157 61.6C43.8028 61.9581 43.2125 62.0775 42.7402 62.0775C43.6848 62.0775 44.3932 62.4356 44.6293 63.2713L45.1016 64.5845C45.2197 65.062 45.5739 65.3008 45.9281 65.4201V65.5395H43.9209C43.8028 65.4201 43.6848 65.062 43.5667 64.5845L43.0944 63.2713C42.8583 62.555 42.6222 62.4356 42.1499 62.4356H41.7957V64.5845C41.7957 65.062 42.0318 65.4201 42.386 65.5395H39.4343V65.1814ZM41.5595 61.7194H41.9137C42.7402 61.7194 43.0944 61.2418 43.0944 60.1674C43.0944 59.2124 42.7402 58.7349 41.9137 58.7349H41.5595V61.7194Z"
              fill="#CDAC81"/>
        <path d="M53.2486 65.1809L50.8872 59.57C50.6511 58.9731 50.415 58.7344 50.0608 58.615H53.1305C52.6583 58.615 52.5402 58.8537 52.5402 59.2119C52.5402 59.3313 52.5402 59.57 52.6583 59.6894L54.0751 62.9127L55.3738 59.6894C55.4919 59.4506 55.4919 59.3313 55.4919 59.0925C55.4919 58.7344 55.2558 58.4956 54.9016 58.4956H56.6726C56.4364 58.4956 56.3184 58.615 56.0822 58.7344C55.9642 58.8537 55.8461 59.2119 55.61 59.57L53.2486 65.1809Z"
              fill="#CDAC81"/>
        <path d="M66.0002 62.555L65.764 65.062H60.9232C61.3955 64.9426 61.5136 64.7038 61.5136 64.1069V59.5705C61.5136 58.9736 61.3955 58.7349 60.9232 58.7349H65.6459L65.764 61.0031C65.4098 59.6899 64.7014 58.9736 63.6388 58.9736H63.0485V61.8387H63.4027C64.1111 61.8387 64.5833 61.4806 64.8195 60.6449V63.2713C64.5833 62.4356 64.2291 62.0775 63.4027 62.0775H63.0485V65.062H63.6388C64.2291 65.062 64.7014 64.9426 65.0556 64.4651C65.4098 63.9876 65.764 63.3907 66.0002 62.555Z"
              fill="#CDAC81"/>
        <path d="M52.1861 38.5593H50.297V53.4818H52.1861V46.9159H63.8748C63.4026 48.1097 62.1038 49.1841 60.3328 50.0198L60.9231 51.6911C63.9929 50.3779 66.0001 48.2291 66.0001 45.9609C66.0001 41.902 59.8605 38.5593 52.1861 38.5593ZM52.1861 40.4694C58.0895 40.4694 62.9303 42.4989 63.8748 45.0058H52.1861V40.4694Z"
              fill="#CDAC81"/>
        <path d="M0 45.9606C0 48.2288 2.00716 50.3777 5.07692 51.6909L5.66726 50.0195C3.77818 49.1839 2.47943 48.1095 2.12522 46.9157H13.814V53.4816H15.703V38.5591H13.814C6.13953 38.5591 0 41.9017 0 45.9606ZM13.814 45.0056H2.00716C2.9517 42.3792 7.91055 40.4692 13.6959 40.4692V45.0056H13.814Z"
              fill="#CDAC81"/>
        <path d="M43.567 38.5593H41.6779V53.4818H43.567V38.5593Z" fill="#CDAC81"/>
        <path d="M36.129 53.4816L31.2882 47.0351C31.6424 47.0351 31.8786 47.0351 32.1147 46.9157H32.2328C34.0038 46.4382 35.4206 44.7668 35.4206 42.8568C35.4206 40.4692 33.5315 38.6785 31.2882 38.6785H22.197V53.601H24.0861V47.1544H28.8088L33.6496 53.601H36.129V53.4816ZM24.2041 45.0056V40.4692C24.2041 40.4692 31.1701 40.4692 31.4063 40.4692C32.587 40.4692 33.6496 41.5436 33.6496 42.7374C33.6496 44.0506 32.587 45.0056 31.4063 45.0056C31.1701 45.0056 24.2041 45.0056 24.2041 45.0056Z"
              fill="#CDAC81"/>
        <path d="M13.6956 0V0.477519H23.1411C23.4953 0.477519 23.8495 0.596899 24.2037 0.716279L24.3217 0.835659C25.3844 1.31318 26.565 1.43256 27.8638 1.43256C27.9819 1.43256 27.9819 1.43256 28.0999 1.43256L52.1858 0.835659V0H13.6956Z"
              fill="#CDAC81"/>
        <path d="M13.6956 4.17771H22.6688C23.023 4.17771 23.3772 4.29709 23.7314 4.41647L23.8495 4.53585C24.9121 5.01337 26.0928 5.13275 27.3915 5.13275C27.5096 5.13275 27.5096 5.13275 27.6277 5.13275L52.1858 4.53585V3.7002H13.6956V4.17771Z"
              fill="#CDAC81"/>
        <path d="M13.6956 7.87839H25.6205C25.9747 7.87839 26.3289 7.99777 26.6831 8.11715L26.8012 8.23653C27.8638 8.71405 29.0445 8.83343 30.3432 8.83343C30.4613 8.83343 30.4613 8.83343 30.5793 8.83343L52.1858 8.23653V7.28149H13.6956V7.87839Z"
              fill="#CDAC81"/>
        <path d="M13.6956 11.5801H30.8155C31.1697 11.5801 31.5239 11.6994 31.8781 11.8188H31.9962C33.1768 12.2963 34.3575 12.5351 35.5382 12.5351C35.6563 12.5351 35.7743 12.5351 35.8924 12.5351L52.1858 11.9382V10.9832H13.6956V11.5801Z"
              fill="#CDAC81"/>
        <path d="M13.6956 15.1609H35.5382C35.8924 15.1609 36.2466 15.2802 36.7189 15.3996C37.8996 15.8771 39.0802 16.1159 40.379 16.1159C40.4971 16.1159 40.6151 16.1159 40.7332 16.1159L52.1858 15.6384V14.6833H13.6956V15.1609Z"
              fill="#CDAC81"/>
        <path d="M13.6957 18.8623H36.0105C36.3647 18.8623 36.719 18.9817 37.0732 19.101C38.2538 19.5786 39.4345 19.8173 40.6152 19.8173C40.7333 19.8173 40.8513 19.8173 40.9694 19.8173L51.9497 19.3398V18.3848H13.4596V18.8623H13.6957Z"
              fill="#CDAC81"/>
        <path d="M13.6958 22.563H34.1216C34.4758 22.563 34.83 22.6823 35.1842 22.8017C36.3649 23.2792 37.5456 23.518 38.7262 23.518C38.8443 23.518 38.9624 23.518 39.0804 23.518L52.0679 23.0405V22.0854H13.5778V22.563H13.6958Z"
              fill="#CDAC81"/>
        <path d="M13.6956 26.1443H30.8155C31.1697 26.1443 31.5239 26.2636 31.8781 26.383H31.9962C33.1768 26.8605 34.3575 27.0993 35.5382 27.0993C35.6563 27.0993 35.7743 27.0993 35.8924 27.0993L52.1858 26.6218V25.6667H13.6956V26.1443Z"
              fill="#CDAC81"/>
        <path d="M13.6958 29.8449H27.5098C27.864 29.8449 28.2182 29.9643 28.5724 30.0837H28.6905C29.8711 30.5612 31.0518 30.8 32.2325 30.8C32.3506 30.8 32.3506 30.8 32.4686 30.8L52.0679 30.2031V29.248H13.5778V29.8449H13.6958Z"
              fill="#CDAC81"/>
        <path d="M20.5436 71.1511H21.6063L23.6134 75.9263L25.5025 71.1511H26.5651V77.0007H25.7386V72.9418L24.2037 77.0007H23.3773L21.6063 72.9418V77.0007H20.7798V71.1511H20.5436Z"
              fill="#CDAC81"/>
        <path d="M28.2181 71.1501H29.1626V76.9998H28.2181V71.1501Z" fill="#CDAC81"/>
        <path d="M32.3504 71.1501H33.413L35.5383 76.9998H34.5937L34.2395 75.6866H31.642L31.1697 76.9998H30.2252L32.3504 71.1501ZM33.8853 74.8509L32.9408 72.1052L31.8782 74.8509H33.8853Z"
              fill="#CDAC81"/>
        <path d="M36.7188 71.1501H37.7815L39.7886 75.9253L41.6777 71.1501H42.7403V76.9998H41.9138V72.9408L40.1428 76.9998H39.3163L37.5453 72.9408V76.9998H36.7188V71.1501Z"
              fill="#CDAC81"/>
        <path d="M44.2754 71.1501H45.22V76.9998H44.2754V71.1501Z" fill="#CDAC81"/>
    </g>
    <defs>
        <clipPath id="clip0">
            <rect width="66" height="77" fill="white"/>
        </clipPath>
    </defs>
</svg>
